<?xml version="1.0" standalone="no"?>
<!DOCTYPE svg PUBLIC "-//W3C//DTD SVG 1.1//EN" "http://www.w3.org/Graphics/SVG/1.1/DTD/svg11.dtd" >
<svg xmlns="http://www.w3.org/2000/svg">
<metadata>
This is a custom SVG webfont generated by Font Squirrel.
Copyright   : Copyright c 2011 wmk69 wmk69o2plwith Reserved Font Names ConsolaMono and Consola MonoThis Font Software is licensed under the SIL Open Font License Version 11This license is available with a FAQ athttpscriptssilorgOFL
</metadata>
<defs>
<font id="ConsolaMonoBook" horiz-adv-x="1200" >
<font-face units-per-em="2048" ascent="1638" descent="-410" />
<missing-glyph horiz-adv-x="500" />
<glyph unicode=" " />
<glyph unicode="!" d="M466 112q0 57 40 94.5t94 37.5q59 0 94 -36q40 -41 40 -96t-40 -94q-39 -38 -94 -38q-57 0 -94 36q-40 39 -40 96zM490 1500h220l-40 -1130h-140z" />
<glyph unicode="&#x22;" d="M364 1500h188l-30 -484h-128zM648 1500h188l-30 -484h-128z" />
<glyph unicode="#" d="M186 515v150h184v170h-184v150h184v347h150v-347h170v347h150v-347h174v-150h-174v-170h174v-150h-174v-347h-150v347h-170v-347h-150v347h-184zM520 665h170v170h-170v-170z" />
<glyph unicode="$" d="M150 434h180q0 -121 65 -203q60 -76 150 -93v609l-156 79q-191 102 -191 317q0 165 111 269q98 92 236 106v242h110v-244q130 -16 222 -104q107 -102 107 -269h-168q-1 100 -64 159q-43 40 -97 55v-464l136 -68q259 -122 259 -391q0 -180 -119 -314q-109 -121 -276 -137 v-242l-110 1v241q-165 17 -279 138q-116 123 -116 313zM366 1160q0 -108 101 -174l78 -39v414q-64 -12 -115 -56q-64 -55 -64 -145zM655 139q85 18 148 94q67 81 67 201q0 138 -128 214l-87 44v-553z" />
<glyph unicode="%" d="M30 1194q0 131 98 229q97 97 240 97q141 0 240 -97q98 -96 98 -235q0 -142 -98 -236q-101 -97 -240 -97q-142 0 -240 100t-98 239zM57 233l964 1149l119 -97l-964 -1149zM184 1189q0 -76 51 -129t131 -53q84 0 134.5 50.5t50.5 131.5q0 77 -49 127q-52 54 -133 54 t-132 -48q-53 -52 -53 -133zM494 339q0 131 98 229q97 97 240 97q141 0 240 -97q98 -96 98 -235q0 -142 -98 -236q-101 -97 -240 -97q-142 0 -240 100t-98 239zM648 334q0 -76 51 -129t131 -53q84 0 134.5 50.5t50.5 131.5q0 77 -49 127q-52 54 -133 54t-132 -48 q-53 -52 -53 -133z" />
<glyph unicode="&#x26;" d="M68 434q0 269 259 391q-193 102 -193 318q0 163 111 269q114 108 284 108q171 0 284 -108q107 -103 107 -269h-168q-1 100 -64 159q-67 63 -161 63q-92 0 -161 -60q-63 -55 -63 -177q0 -113 71 -178q59 -54 207 -54l280 -474q55 117 55 327q0 51 -8 154h188 q0 -389 -145 -617l181 -286h-191l-92 152q-155 -172 -331 -172q-205 0 -331 140q-119 134 -119 314zM248 434q0 -122 67 -201q85 -100 203 -100q134 0 253 147l-276 454q-109 -19 -167 -86q-80 -92 -80 -214z" />
<glyph unicode="'" d="M506 1500h188l-30 -484h-128z" />
<glyph unicode="(" d="M354 750q0 255 77 491q81 248 248 519h167q-163 -232 -247 -508q-73 -241 -73 -502q0 -270 73 -503q82 -268 247 -507h-167q-172 279 -248 519q-77 246 -77 491z" />
<glyph unicode=")" d="M354 -260q165 239 247 507q73 233 73 503q0 261 -73 502q-84 276 -247 508h167q167 -271 248 -519q77 -236 77 -491q0 -245 -77 -491q-76 -240 -248 -519h-167z" />
<glyph unicode="*" d="M201 948l259 138l-259 138l80 138l239 -157v295h160v-295l239 157l80 -138l-259 -138l259 -138l-80 -138l-239 157v-295h-160v295l-239 -157z" />
<glyph unicode="+" d="M186 670v160h334v334h160v-334h334v-160h-334v-334h-160v334h-334z" />
<glyph unicode="," d="M485 -176q72 68 72 167q0 62 -58 141l163 70q54 -95 54 -209q0 -175 -231 -285v116z" />
<glyph unicode="-" d="M186 670v160h828v-160h-828z" />
<glyph unicode="." d="M466 112q0 57 40 94.5t94 37.5q59 0 94 -36q40 -41 40 -96t-40 -94q-39 -38 -94 -38q-57 0 -94 36q-40 39 -40 96z" />
<glyph unicode="/" d="M40 -260l943 2020h177l-941 -2020h-179z" />
<glyph unicode="0" d="M110 750q0 333 106 533q126 237 384 237q260 0 384 -237q106 -203 106 -533t-106 -533q-124 -237 -384 -237q-258 0 -384 237q-106 200 -106 533zM280 750q0 -175 25 -296l537 744q-90 169 -242 169q-151 0 -242 -169q-78 -145 -78 -448zM358 302q95 -169 242 -169 q152 0 242 169q78 146 78 448q0 164 -23 282z" />
<glyph unicode="1" d="M250 0v160h334v1140l-334 -360v210l324 350h180v-1340h324v-160h-828z" />
<glyph unicode="2" d="M150 0v160q0 161 191 317l361 304q168 141 168 285q0 110 -67 201q-76 100 -203 100t-205 -98q-65 -82 -65 -203h-180q0 190 116 313q133 141 334 141q205 0 331 -140q119 -134 119 -314q0 -215 -216 -395l-403 -337q-101 -86 -101 -174h720v-160h-900z" />
<glyph unicode="3" d="M150 434h180q0 -121 65 -203q78 -98 205 -98q120 0 203 100q67 81 67 201q0 122 -79.5 214.5t-253.5 92.5v155q150 0 207 54q71 63 71 178q0 122 -63 177q-69 60 -161 60q-94 0 -161 -63q-63 -59 -64 -159h-168q0 166 107 269q113 108 284 108q170 0 284 -108 q111 -106 111 -269q0 -216 -193 -318q259 -122 259 -391q0 -180 -119 -314q-126 -140 -331 -140q-201 0 -334 141q-116 123 -116 313z" />
<glyph unicode="4" d="M100 321q202 693 710 1179h180v-1500h-180v321h-710zM312 481h498v819q-308 -348 -498 -819z" />
<glyph unicode="5" d="M150 434h180q0 -121 65 -203q78 -98 205 -98q128 0 204 118q66 102 66 237q0 149 -78 247q-79 100 -192 100q-112 0 -186 -94l-175 97l102 662h616v-160h-473l-60 -413q80 61 182 61q190 0 314 -139q130 -146 130 -358q0 -204 -115 -353q-121 -158 -335 -158 q-201 0 -334 141q-116 123 -116 313z" />
<glyph unicode="6" d="M130 750q0 334 106 533q126 237 384 237q259 0 384 -237q31 -59 49 -117h-186q-7 17 -15 32q-90 169 -232 169q-141 0 -232 -169q-78 -145 -78 -448q117 238 316 238q189 0 314 -139q130 -145 130 -358q0 -204 -115 -353q-121 -158 -335 -158q-258 0 -384 237 q-106 200 -106 533zM350 488q0 -138 66 -237q79 -118 204 -118q128 0 204 118q66 102 66 237q0 148 -78 247q-79 100 -192 100t-192 -100q-78 -99 -78 -247z" />
<glyph unicode="7" d="M150 1340v160h900q-51 -382 -212 -770q-174 -420 -380 -730h-198q282 435 410 780q124 335 168 560h-688z" />
<glyph unicode="8" d="M150 434q0 269 259 391q-193 102 -193 318q0 163 111 269q114 108 273 108t273 -108q111 -106 111 -269q0 -216 -193 -318q259 -122 259 -391q0 -180 -119 -314q-126 -140 -331 -140t-331 140q-119 134 -119 314zM330 431q0 -115 66 -200q77 -98 206 -98q121 0 201 97 q67 81 67 202q0 122 -67 203q-80 97 -201 97q-129 0 -206 -98q-66 -85 -66 -203zM385 1126q0 -111 63 -179q56 -60 152 -60q97 0 154 63q61 67 61 176t-61 176q-57 63 -154 63q-93 0 -152 -60q-63 -64 -63 -179z" />
<glyph unicode="9" d="M130 1009q0 204 115 353q121 158 335 158q258 0 384 -237q106 -200 106 -533q0 -334 -106 -533q-126 -237 -384 -237q-259 0 -384 237q-31 59 -49 117h186q7 -17 15 -32q90 -169 232 -169q141 0 232 169q78 145 78 448q-117 -238 -316 -238q-189 0 -314 139 q-130 145 -130 358zM310 1012q0 -148 78 -247q79 -100 192 -100t192 100q78 99 78 247q0 138 -66 237q-79 118 -204 118q-128 0 -204 -118q-66 -102 -66 -237z" />
<glyph unicode=":" d="M466 112q0 57 40 94.5t94 37.5q59 0 94 -36q40 -41 40 -96t-40 -94q-39 -38 -94 -38q-57 0 -94 36q-40 39 -40 96zM466 748q0 57 40 94.5t94 37.5q59 0 94 -36q40 -41 40 -96t-40 -94q-39 -38 -94 -38q-57 0 -94 36q-40 39 -40 96z" />
<glyph unicode=";" d="M466 748q0 57 40 94.5t94 37.5q59 0 94 -36q40 -41 40 -96t-40 -94q-39 -38 -94 -38q-57 0 -94 36q-40 39 -40 96zM475 -176q72 68 72 167q0 62 -58 141l163 70q54 -95 54 -209q0 -175 -231 -285v116z" />
<glyph unicode="&#x3c;" d="M200 704v92l717 414l80 -139l-556 -321l556 -322l-80 -139z" />
<glyph unicode="=" d="M186 510v160h828v-160h-828zM186 830v160h828v-160h-828z" />
<glyph unicode="&#x3e;" d="M203 428l556 322l-556 321l80 139l717 -414v-92l-717 -415z" />
<glyph unicode="?" d="M150 1066q0 190 116 313q133 141 334 141q205 0 331 -140q119 -134 119 -314q0 -211 -217 -376q-149 -113 -149 -312h-167q0 278 185 403q168 116 168 285q0 120 -67 201q-83 100 -203 100q-127 0 -205 -98q-65 -82 -65 -203h-180zM466 112q0 57 40 94.5t94 37.5 q59 0 94 -36q40 -41 40 -96t-40 -94q-39 -38 -94 -38q-57 0 -94 36q-40 39 -40 96z" />
<glyph unicode="@" d="M110 352q0 349 148 560q146 208 401 208q212 0 332 -152q99 -125 99 -283v-685h-180v72q-66 -92 -158 -92q-146 0 -240 96q-98 100 -98 243q0 139 101 237q86 83 235 83q97 0 160 -85v131q0 118 -57 187q-78 95 -194 95q-173 0 -278 -157q-91 -136 -91 -460 q0 -309 78 -448q95 -169 232 -169q91 0 160 69l108 -133q-108 -89 -268 -89q-260 0 -384 237q-106 202 -106 535zM570 313.5q0 -81.5 46 -135.5q48 -56 136 -56q72 0 132 60q15 15 26 33v195q-10 17 -24 31q-54 54 -133 54q-83 0 -132 -48q-51 -52 -51 -133.5z" />
<glyph unicode="A" d="M50 0q134 720 460 1500h180q338 -780 460 -1500h-180q-57 341 -150 670h-439q-91 -325 -151 -670h-180zM429 830h343q-76 244 -172 480q-95 -234 -171 -480z" />
<glyph unicode="B" d="M150 0v1500h346q210 0 331 -113q112 -106 112 -262q0 -198 -187 -278q87 -18 149 -67q149 -117 149 -330q0 -211 -140 -331q-135 -119 -364 -119h-396zM330 153h216q161 0 254 87q80 75 80 211q0 122 -80 209t-254 87h-216v-594zM330 900h166q144 0 210 62.5t66 161 t-67 157.5q-72 66 -209 66h-166v-447z" />
<glyph unicode="C" d="M110 750q0 334 106 533q126 237 384 237q259 0 384 -237q31 -59 49 -117h-186q-7 17 -15 32q-90 169 -232 169q-141 0 -232 -169q-78 -145 -78 -448q0 -309 78 -448q95 -169 232 -169q142 0 232 169q8 15 15 32h186q-23 -67 -49 -117q-124 -237 -384 -237 q-258 0 -384 237q-106 200 -106 533z" />
<glyph unicode="D" d="M150 0v1500h400q309 0 434 -237q106 -201 106 -513q0 -310 -105 -513q-124 -237 -434 -237h-401zM329 153h222q193 0 282 169q77 146 77 428q0 283 -78 428q-91 169 -282 169h-220z" />
<glyph unicode="E" d="M186 0v1500h760v-160h-580v-510h455v-160h-455v-510h648v-160h-828z" />
<glyph unicode="F" d="M220 0v1500h760v-160h-580v-510h455v-160h-455v-670h-180z" />
<glyph unicode="G" d="M110 750q0 334 106 533q126 237 384 237q259 0 384 -237q31 -59 49 -117h-186q-7 17 -15 32q-90 169 -232 169q-141 0 -232 -169q-78 -145 -78 -448q0 -309 78 -448q95 -169 232 -169q142 0 232 169q67 126 76 368l-313 -1v160l495 1v-80q0 -330 -106 -533 q-124 -237 -384 -237q-258 0 -384 237q-106 200 -106 533z" />
<glyph unicode="H" d="M150 0v1500h180v-670h540v670h180v-1500h-180v670h-540v-670h-180z" />
<glyph unicode="I" d="M186 0v160h324v1180h-324v160h828v-160h-324v-1180h324v-160h-828z" />
<glyph unicode="J" d="M100 434h180q0 -121 65 -203q78 -98 205 -98q120 0 203 100q67 81 67 201v906h-540v160h720v-1066q0 -180 -119 -314q-126 -140 -331 -140q-201 0 -334 141q-116 123 -116 313z" />
<glyph unicode="K" d="M150 0v1500h180v-872q350 406 505 872h180q-151 -422 -388 -748q263 -336 423 -752h-182q-148 348 -347 622q-81 -112 -191 -226v-396h-180z" />
<glyph unicode="L" d="M186 0v1500h180v-1340h648v-160h-828z" />
<glyph unicode="M" d="M150 0v1500h180q216 -360 270 -740q67 378 270 740h180v-1500h-160v1232q-200 -404 -200 -774h-180q0 370 -200 774v-1232h-160z" />
<glyph unicode="N" d="M150 0v1500h180q402 -466 560 -1038v1038h160v-1500h-160q-244 843 -580 1264v-1264h-160z" />
<glyph unicode="O" d="M110 750q0 333 106 533q126 237 384 237q260 0 384 -237q106 -203 106 -533t-106 -533q-124 -237 -384 -237q-258 0 -384 237q-106 200 -106 533zM290 750q0 -309 78 -448q95 -169 232 -169q142 0 232 169q78 146 78 448q0 298 -78 448q-90 169 -232 169 q-141 0 -232 -169q-78 -145 -78 -448z" />
<glyph unicode="P" d="M150 0v1500h396q203 0 339 -119q165 -144 165 -381q0 -241 -166 -384q-133 -116 -338 -116h-216v-500h-180zM330 653h216q147 0 229 87q95 101 95 260t-99 258q-90 89 -225 89h-216v-694z" />
<glyph unicode="Q" d="M110 750q0 333 106 533q126 237 384 237q260 0 384 -237q106 -203 106 -533t-106 -533l-9 -17l140 -200l-126 -91l-116 165q-109 -94 -273 -94q-258 0 -384 237q-106 200 -106 533zM290 750q0 -309 78 -448q95 -169 232 -169q100 0 174 83l-260 371l126 91l219 -313 q51 142 51 385q0 298 -78 448q-90 169 -232 169q-141 0 -232 -169q-78 -145 -78 -448z" />
<glyph unicode="R" d="M150 0v1500h396q203 0 339 -119q165 -144 165 -381q0 -243 -166 -384q-49 -42 -107 -69l323 -547h-209l-297 502q-23 -2 -48 -2h-216v-500h-180zM330 653h216q147 0 229 87q95 101 95 260t-99 258q-90 89 -225 89h-216v-694z" />
<glyph unicode="S" d="M150 434h180q0 -121 65 -203q78 -98 205 -98q120 0 203 100q67 81 67 201q0 138 -128 214l-353 178q-191 102 -191 317q0 163 111 269q114 108 284 108q171 0 284 -108q107 -103 107 -269h-168q-1 100 -64 159q-67 63 -161 63q-92 0 -161 -60q-64 -56 -64 -145 q0 -108 101 -174l324 -161q259 -122 259 -391q0 -180 -119 -314q-126 -140 -331 -140q-201 0 -334 141q-116 123 -116 313z" />
<glyph unicode="T" d="M150 1340v160h900v-160h-360v-1340h-180v1340h-360z" />
<glyph unicode="U" d="M150 434v1066h180v-1066q0 -121 65 -203q78 -98 205 -98q122 0 205 100q65 78 65 201v1066h180v-1066q0 -183 -119 -314q-127 -140 -331 -140q-201 0 -334 141q-116 122 -116 313z" />
<glyph unicode="V" d="M50 1500h180q114 -680 370 -1310q250 616 370 1310h180q-134 -720 -460 -1500h-180q-326 780 -460 1500z" />
<glyph unicode="W" d="M10 1500h180q41 -760 166 -1280q104 302 146 816h182q47 -496 164 -823q124 513 162 1287h180q-56 -754 -240 -1500h-180q-111 310 -178 686q-56 -370 -162 -686h-180q-190 742 -240 1500z" />
<glyph unicode="X" d="M100 0q206 267 401 609q-239 461 -401 891h180q152 -398 320 -723q162 323 320 723h180q-156 -430 -401 -891q195 -342 401 -609h-206q-151 195 -294 435q-143 -240 -294 -435h-206z" />
<glyph unicode="Y" d="M100 1500h180q142 -400 320 -733q186 329 320 733h180q-144 -430 -410 -908v-592h-180v592q-260 478 -410 908z" />
<glyph unicode="Z" d="M150 0v160q474 584 659 1180h-589v160h830q-225 -756 -683 -1340h683v-160h-900z" />
<glyph unicode="[" d="M348 -260v2020h504v-160h-334v-1700h334v-160h-504z" />
<glyph unicode="\" d="M40 1760h177l943 -2020h-179z" />
<glyph unicode="]" d="M348 -100h334v1700h-334v160h504v-2020h-504v160z" />
<glyph unicode="^" d="M185 1181l391 319h48l391 -319l-103 -123l-311 270l-313 -270z" />
<glyph unicode="_" d="M186 -32h828v-160h-828v160z" />
<glyph unicode="`" d="M411 1426l162 94l216 -434l-110 -64z" />
<glyph unicode="a" d="M180 299q0 177 141 276q110 78 260 78h236q0 140 -31 199q-59 112 -191 112q-159 0 -222 -130l-115 126q121 160 360 160q203 0 313 -162q71 -105 71 -304v-654h-180v237q-83 -257 -309 -257q-162 0 -252 106q-81 95 -81 213zM352 307q0 -67 44 -115q54 -59 153 -59 q105 0 173 86q100 124 100 288h-238q-112 0 -176 -59q-56 -52 -56 -141z" />
<glyph unicode="b" d="M186 0v1500h180v-538q69 158 234 158q193 0 314 -160q116 -153 116 -410t-116 -410q-121 -160 -314 -160q-178 0 -234 158v-138h-180zM364 550q0 -179 51 -284q63 -129 185 -129q136 0 199 129q51 105 51 284t-51 284q-63 129 -199 129q-122 0 -185 -129 q-51 -105 -51 -284z" />
<glyph unicode="c" d="M170 550q0 257 116 410q121 160 314 160q195 0 314 -160q60 -81 91 -195h-180q-11 38 -26 69q-62 129 -199 129q-136 0 -199 -129q-51 -105 -51 -284t51 -284q63 -129 199 -129q137 0 199 129q15 31 26 68h180q-31 -113 -91 -194q-119 -160 -314 -160q-193 0 -314 160 q-116 153 -116 410z" />
<glyph unicode="d" d="M170 550q0 257 116 410q121 160 314 160q165 0 234 -158v538h180v-1500h-180v138q-56 -158 -234 -158q-193 0 -314 160q-116 153 -116 410zM350 550q0 -179 51 -284q63 -129 199 -129q122 0 185 129q51 105 51 284t-51 284q-63 129 -185 129q-136 0 -199 -129 q-51 -105 -51 -284z" />
<glyph unicode="e" d="M170 550q0 257 116 410q121 160 314 160q192 0 314 -160q108 -142 115 -374l-667 -193q13 -73 39 -127q62 -129 199 -129t199 129q15 31 26 68h180q-31 -114 -91 -194q-120 -160 -314 -160q-193 0 -314 160q-116 153 -116 410zM350 550l490 142q-12 83 -41 142 q-63 129 -199 129t-199 -129q-51 -105 -51 -284z" />
<glyph unicode="f" d="M186 800v160h324v139q0 197 91 309q96 112 273 112q176 0 276 -117l-92 -122q-72 86 -173 86q-96 0 -144 -62q-51 -65 -51 -206v-139h324v-160h-324v-800h-180v800h-324z" />
<glyph unicode="g" d="M170 550q0 257 116 410q121 160 314 160q178 0 234 -158v138h180v-950q0 -259 -116 -410q-124 -160 -317 -160q-192 0 -317 168l137 89q63 -100 183 -100q136 0 199 129q51 105 51 272q-69 -158 -234 -158q-193 0 -314 160q-116 153 -116 410zM350 550q0 -179 51 -284 q63 -129 199 -129q122 0 185 129q51 105 51 284t-51 284q-63 129 -185 129q-136 0 -199 -129q-51 -105 -51 -284z" />
<glyph unicode="h" d="M186 0v1500h180v-637q85 257 317 257q142 0 240 -112q91 -104 91 -309v-699h-180v699q0 141 -51 206q-48 62 -144 62q-101 0 -173 -86q-100 -119 -100 -289v-592h-180z" />
<glyph unicode="i" d="M186 940v160h504v-699q0 -140 51 -206q48 -62 144 -62q101 0 173 86l92 -122q-100 -117 -275 -117q-178 0 -274 112q-91 106 -91 309v539h-324zM426 1388q0 57 40 94.5t94 37.5q59 0 94 -36q40 -41 40 -96t-40 -94q-39 -38 -94 -38q-57 0 -94 36q-40 39 -40 96z" />
<glyph unicode="j" d="M159 -303l92 122q72 -86 173 -86q96 0 144 62q51 66 51 206v939h-324v160h504v-1099q0 -207 -91 -309q-100 -112 -273 -112q-176 0 -276 117zM535 1388q0 57 40 94.5t94 37.5q59 0 94 -36q40 -41 40 -96t-40 -94q-39 -38 -94 -38q-57 0 -94 36q-40 39 -40 96z" />
<glyph unicode="k" d="M186 0v1500h180v-1135q338 283 449 735h180q-71 -292 -246 -548q157 -240 265 -552h-182q-82 236 -198 405q-115 -123 -268 -248v-157h-180z" />
<glyph unicode="l" d="M186 1340v160h504v-1099q0 -140 51 -206q48 -62 144 -62q101 0 173 86l92 -122q-100 -117 -276 -117q-173 0 -273 112q-91 102 -91 309v939h-324z" />
<glyph unicode="m" d="M154 0v1100h160v-114q55 134 166 134q127 0 168 -140q48 140 195 140q111 0 167 -116q36 -73 36 -239v-765h-160v765q0 104 -10 136q-23 73 -79 73q-69 0 -101 -65q-15 -30 -15 -144v-765h-160v765q0 108 -11 143q-21 66 -76 66q-70 0 -99 -68q-21 -48 -21 -141v-765 h-160z" />
<glyph unicode="n" d="M186 0v1100h180v-237q85 257 317 257q142 0 240 -112q91 -104 91 -309v-699h-180v699q0 141 -51 206q-48 62 -144 62q-101 0 -173 -86q-100 -119 -100 -289v-592h-180z" />
<glyph unicode="o" d="M170 550q0 257 116 410q121 160 314 160t314 -160q116 -153 116 -410t-116 -410q-121 -160 -314 -160t-314 160q-116 153 -116 410zM350 550q0 -179 51 -284q63 -129 199 -129t199 129q51 105 51 284t-51 284q-63 129 -199 129t-199 -129q-51 -105 -51 -284z" />
<glyph unicode="p" d="M186 -400v1500h180v-138q56 158 234 158q193 0 314 -160q116 -153 116 -410t-116 -410q-121 -160 -314 -160q-165 0 -234 158v-538h-180zM364 550q0 -179 51 -284q63 -129 185 -129q136 0 199 129q51 105 51 284t-51 284q-63 129 -199 129q-122 0 -185 -129 q-51 -105 -51 -284z" />
<glyph unicode="q" d="M170 550q0 257 116 410q121 160 314 160q178 0 234 -158v138h180v-1330q64 40 107 108t69 122v-240q-41 -66 -133 -116q-81 -44 -223 -44v538q-69 -158 -234 -158q-193 0 -314 160q-116 153 -116 410zM350 550q0 -179 51 -284q63 -129 199 -129q122 0 185 129 q51 105 51 284t-51 284q-63 129 -185 129q-136 0 -199 -129q-51 -105 -51 -284z" />
<glyph unicode="r" d="M186 0v1100h180v-237q85 257 317 257q159 0 251 -110q80 -96 80 -245h-180q0 93 -44 142q-54 60 -134 60q-118 0 -190 -86q-100 -119 -100 -289v-592h-180z" />
<glyph unicode="s" d="M207 357h168q1 -100 64 -159q67 -63 161 -63q99 0 161 60q57 56 57 145q0 101 -119 141l-240 75q-216 83 -216 260q0 145 118 235q90 69 226 69q155 0 253 -108q82 -90 82 -218h-169q0 69 -43 120q-45 53 -126 53q-74 0 -128 -37q-48 -36 -48 -101q0 -81 133 -123 l206 -64q246 -79 246 -299q0 -149 -111 -255q-114 -108 -284 -108q-171 0 -284 108q-107 103 -107 269z" />
<glyph unicode="t" d="M186 940v160h324v400h180v-400h324v-160h-324v-539q0 -140 51 -206q48 -62 144 -62q101 0 173 86l92 -122q-100 -117 -276 -117q-173 0 -273 112q-91 102 -91 309v539h-324z" />
<glyph unicode="u" d="M186 401v699h180v-699q0 -141 51 -206q48 -62 144 -62q101 0 173 86q100 119 100 289v592h180v-1100h-180v237q-85 -257 -317 -257q-142 0 -240 112q-91 104 -91 309z" />
<glyph unicode="v" d="M100 1100h180q154 -660 322 -902q180 242 318 902h180q-158 -724 -410 -1100h-180q-252 376 -410 1100z" />
<glyph unicode="w" d="M64 1100h180q44 -550 168 -900q98 210 98 636h181q0 -426 98 -636q123 350 167 900h180q-69 -558 -245 -1100h-180q-73 222 -111 392q-37 -170 -110 -392h-180q-178 542 -246 1100z" />
<glyph unicode="x" d="M130 0q194 176 362 392q-237 314 -362 708h197q87 -304 273 -590q184 280 273 590h197q-125 -378 -361 -708q159 -212 361 -392h-225q-140 115 -245 263q-111 -146 -245 -263h-225z" />
<glyph unicode="y" d="M186 401v699h180v-699q0 -141 51 -206q48 -62 144 -62q101 0 173 86q100 119 100 289v592h180v-950q0 -261 -116 -410q-125 -160 -319 -160q-190 0 -315 168l137 89q63 -100 183 -100q136 0 199 129q51 105 51 284v87q-85 -257 -317 -257q-142 0 -240 112 q-91 104 -91 309z" />
<glyph unicode="z" d="M186 0v160q405 398 587 780h-551v160h792q-129 -473 -608 -940h608v-160h-828z" />
<glyph unicode="{" d="M186 670v160h152q172 0 172 180v410q0 340 352 340h152v-160h-152q-182 0 -182 -180v-410q0 -186 -142 -260q142 -61 142 -260v-410q0 -180 182 -180h152v-160h-152q-352 0 -352 340v410q0 180 -172 180h-152z" />
<glyph unicode="|" d="M520 -260v2020h160v-2020h-160z" />
<glyph unicode="}" d="M186 -100h152q182 0 182 180v410q0 199 142 260q-142 74 -142 260v410q0 180 -182 180h-152v160h152q352 0 352 -340v-410q0 -180 172 -180h152v-160h-152q-172 0 -172 -180v-410q0 -340 -352 -340h-152v160z" />
<glyph unicode="~" d="M186 618q50 316 233 316q109 0 213 -107q94 -97 151 -97t86 147h145q-57 -316 -221 -316q-91 0 -225 128q-80 77 -144 77q-68 0 -96 -148h-142z" />
<glyph unicode="&#xa0;" />
<glyph unicode="&#xa1;" d="M466 988q0 55 40 94q39 38 94 38q57 0 94 -36q40 -39 40 -96t-40 -94.5t-94 -37.5q-59 0 -94 36q-40 41 -40 96zM490 -400l40 1130h140l40 -1130h-220z" />
<glyph unicode="&#xa2;" d="M170 550q0 256 116 410q103 137 259 157v231h110v-231q157 -20 259 -157q60 -80 91 -195h-180q-11 38 -26 69q-49 101 -144 123v-814q95 22 144 123q15 31 26 68h180q-31 -112 -91 -194q-101 -137 -259 -157v-242l-110 1v241q-156 20 -259 157q-116 154 -116 410z M350 550q0 -179 51 -284q49 -101 144 -123v814q-95 -22 -144 -123q-51 -105 -51 -284z" />
<glyph unicode="&#xa3;" d="M80 0v160h106v504h-106v160h106v319q0 163 111 269q114 108 284 108q171 0 284 -108q107 -103 107 -269h-168q-1 100 -64 159q-67 63 -161 63q-81 0 -150 -60q-63 -55 -63 -177v-304h339v-160h-339v-504h651v-160h-937z" />
<glyph unicode="&#xa4;" d="M185 448l120 120q-51 78 -51 178q0 102 54 182l-123 124l113 113l128 -128q74 41 166 41q98 0 176 -47l134 134l113 -113l-133 -133q48 -74 48 -173q0 -95 -44 -168l129 -130l-113 -113l-129 129q-80 -51 -181 -51q-95 0 -171 44l-123 -122zM407 747q0 -76 51 -129 t131 -53q84 0 134.5 50.5t50.5 131.5q0 77 -49 127q-52 54 -133 54t-132 -48q-53 -52 -53 -133z" />
<glyph unicode="&#xa5;" d="M100 1500h180q125 -351 277 -650h88q158 296 275 650h180q-105 -312 -274 -650h188v-120h-249l-65 -120h314v-120h-324v-490h-180v490h-324v120h314l-63 120h-251v120h190q-167 338 -276 650z" />
<glyph unicode="&#xa6;" d="M520 -260v930h160v-930h-160zM520 830v930h160v-930h-160z" />
<glyph unicode="&#xa7;" d="M194 757q0 135 91 235l141 -87q-57 -56 -57 -145q0 -101 119 -141l240 -75q216 -83 216 -260q0 -145 -118 -235q-90 -69 -226 -69q-155 0 -253 108q-82 90 -82 218h169q0 -69 43 -120q45 -53 126 -53q76 0 128 37q48 34 48 101q0 81 -133 123l-206 64q-246 79 -246 299z M256 1216q0 145 118 235q90 69 226 69q155 0 253 -108q82 -90 82 -218h-169q0 69 -43 120q-45 53 -126 53q-76 0 -128 -37q-48 -34 -48 -101q0 -81 133 -123l206 -64q246 -79 246 -299q0 -135 -91 -235l-141 87q57 56 57 145q0 101 -119 141l-240 75q-216 83 -216 260z" />
<glyph unicode="&#xa8;" d="M300 1388q0 57 40 94.5t94 37.5q59 0 94 -36q40 -41 40 -96t-40 -94q-39 -38 -94 -38q-57 0 -94 36q-40 39 -40 96zM632 1388q0 57 40 94.5t94 37.5q59 0 94 -36q40 -41 40 -96t-40 -94q-39 -38 -94 -38q-57 0 -94 36q-40 39 -40 96z" />
<glyph unicode="&#xa9;" d="M149 1066q0 189 133 322q132 132 318 132t318 -132t132 -320t-132 -320.5t-318 -132.5q-183 0 -316 129q-135 131 -135 322zM227 1069q0 -161 110.5 -272.5t265.5 -111.5q153 0 261 112q109 113 109 272t-110.5 272t-262.5 113q-158 0 -264 -111q-109 -113 -109 -274z M362 1073q0 136 62 217q67 88 173 88q105 0 173 -88q35 -45 50 -108h-132q-4 13 -9 24q-25 54 -82 54t-82 -54q-23 -49 -23 -133t23 -133q26 -54 82 -54q55 0 82 54q5 10 8 22h133q-16 -61 -50 -106q-66 -88 -173 -88q-106 0 -173 88q-62 81 -62 217z" />
<glyph unicode="&#xaa;" d="M236 670v140h728v-140h-728zM361 1090q0 100 79 154q61 42 142 42h97q-1 49 -13 71q-25 45 -78 45q-66 0 -93 -54l-91 84q66 88 196 88q112 0 173 -90q38 -56 39 -163v-347h-130v55q-50 -65 -134 -65q-93 0 -142 60q-45 55 -45 120zM484 1095q0 -30 19 -49q24 -24 62 -24 q50 0 85 48q24 36 31 114h-98q-47 0 -74 -28q-25 -26 -25 -61z" />
<glyph unicode="&#xab;" d="M150 726v49l322 391l123 -103l-270 -311l270 -313l-123 -103zM543 726v49l322 391l123 -103l-270 -311l270 -313l-123 -103z" />
<glyph unicode="&#xac;" d="M186 670v160h828v-521h-160v361h-668z" />
<glyph unicode="&#xad;" d="M186 670v160h828v-160h-828z" />
<glyph unicode="&#xae;" d="M149 1066q0 189 133 322q132 132 318 132t318 -132t132 -320t-132 -320.5t-318 -132.5q-183 0 -316 129q-135 131 -135 322zM227 1069q0 -161 110.5 -272.5t265.5 -111.5q134 0 234 86h-118l-120 175h-57v-175h-132v600h210q82 0 146 -55q63 -53 63 -146q0 -100 -59 -156 q-23 -22 -46 -34l143 -179q106 111 106 268q0 159 -110.5 272t-262.5 113q-157 0 -264 -111q-109 -114 -109 -274zM542 1067h78q43 0 64 39q15 28 15 60q0 37 -25 62q-23 22 -54 22h-78v-183z" />
<glyph unicode="&#xaf;" d="M186 1532v160h828v-160h-828z" />
<glyph unicode="&#xb0;" d="M350 1270q0 104 73 177t177 73t177 -73t73 -177t-73 -177t-177 -73t-177 73t-73 177zM483 1272.5q0 -51.5 34 -88t84 -36.5t84 36.5t34 88t-34 87.5t-84 36t-84 -36t-34 -87.5z" />
<glyph unicode="&#xb1;" d="M186 233v160h828v-160h-828zM186 780v160h334v334h160v-334h334v-160h-334v-334h-160v334h-334z" />
<glyph unicode="&#xb2;" d="M350 700v105q0 92 105 178l180 152q75 63 75 123q0 50 -29 86q-32 40 -81 40q-51 0 -83 -40q-27 -34 -27 -86h-140q0 105 65 174q74 78 185 78q122 0 188 -79q62 -74 62 -173q0 -119 -117 -217l-201 -168q-26 -22 -36 -43h354v-130h-500z" />
<glyph unicode="&#xb3;" d="M350 952h140q0 -52 27 -86q33 -40 83 -40q49 0 82 41q28 34 28 85q0 52 -33 90t-109 38v128q66 0 87 20q27 26 27 71q0 50 -22 70q-27 23 -64 23q-38 0 -64 -24q-24 -22 -24 -62h-134q0 94 61 153q63 61 159 61t160 -61q63 -60 63 -153q0 -99 -73 -157q106 -68 106 -197 q0 -100 -66 -174q-70 -78 -184 -78q-111 0 -185 78q-65 69 -65 174z" />
<glyph unicode="&#xb4;" d="M411 1086l216 434l162 -94l-268 -404z" />
<glyph unicode="&#xb5;" d="M186 -400v1500h180v-699q0 -141 51 -206q48 -62 144 -62q101 0 173 86q100 119 100 289v592h180v-1100h-180v237q-85 -257 -317 -257q-83 0 -151 38v-418h-180z" />
<glyph unicode="&#xb6;" d="M150 1048q0 188 132 320q133 132 318 132h416v-1500h-130v1360h-146v-1360h-140v595q-186 1 -318 133t-132 320z" />
<glyph unicode="&#xb7;" d="M466 748q0 57 40 94.5t94 37.5q59 0 94 -36q40 -41 40 -96t-40 -94q-39 -38 -94 -38q-57 0 -94 36q-40 39 -40 96z" />
<glyph unicode="&#xb8;" d="M485 43v116q230 -104 230 -285q0 -194 -214 -284v189q82 39 82 111q0 94 -98 153z" />
<glyph unicode="&#xb9;" d="M368 700v130h162v476l-162 -175v179l176 190h126v-670h162v-130h-464z" />
<glyph unicode="&#xba;" d="M236 670v140h728v-140h-728zM365 1215q0 136 62 217q67 88 173 88t173 -88q62 -81 62 -217t-62 -217q-67 -88 -173 -88t-173 88q-62 81 -62 217zM495 1215q0 -84 23 -133q26 -54 82 -54q57 0 82 54q23 50 23 133q0 85 -23 133q-26 54 -82 54q-57 0 -82 -54 q-23 -49 -23 -133z" />
<glyph unicode="&#xbb;" d="M212 439l270 313l-270 311l123 103l322 -391v-49l-322 -390zM605 439l270 313l-270 311l123 103l322 -391v-49l-322 -390z" />
<glyph unicode="&#xbc;" d="M58 700v130h162v476l-162 -175v179l176 190h126v-670h162v-130h-464zM231 138l750 1299l134 -75l-750 -1299zM616 160q108 361 378 640h125v-800h-140v160h-363zM793 290h186v336q-107 -138 -186 -336z" />
<glyph unicode="&#xbd;" d="M49 1131v179l176 190h126v-670h122v-130h-384v130h122v476zM161 138l750 1299l134 -75l-750 -1299zM648 0v105q0 92 105 178l180 152q75 63 75 123q0 50 -29 86q-32 40 -81 40q-51 0 -83 -40q-27 -34 -27 -86h-140q0 105 65 174q74 78 185 78q122 0 188 -79 q62 -74 62 -173q0 -119 -117 -217l-201 -168q-26 -22 -36 -43h354v-130h-500z" />
<glyph unicode="&#xbe;" d="M50 952h140q0 -52 27 -86q33 -40 83 -40q49 0 82 41q28 34 28 85q0 52 -33 90t-109 38v128q66 0 87 20q27 26 27 71q0 50 -22 70q-27 23 -64 23q-38 0 -64 -24q-24 -22 -24 -62h-134q0 94 61 153q63 61 159 61t160 -61q63 -60 63 -153q0 -99 -73 -157q106 -68 106 -197 q0 -100 -66 -174q-70 -78 -184 -78q-111 0 -185 78q-65 69 -65 174zM231 138l750 1299l134 -75l-750 -1299zM616 160q108 361 378 640h125v-800h-140v160h-363zM793 290h186v336q-107 -138 -186 -336z" />
<glyph unicode="&#xbf;" d="M150 34q0 211 217 376q149 113 149 312h167q0 -278 -185 -403q-168 -116 -168 -285q0 -120 67 -201q83 -100 203 -100q127 0 205 98q65 82 65 203h180q0 -190 -116 -313q-133 -141 -334 -141q-205 0 -331 140q-119 134 -119 314zM466 988q0 57 40 94.5t94 37.5 q59 0 94 -36q40 -41 40 -96t-40 -94q-39 -38 -94 -38q-57 0 -94 36q-40 39 -40 96z" />
<glyph unicode="&#xc0;" d="M50 0q134 720 460 1500h180q338 -780 460 -1500h-180q-57 341 -150 670h-439q-91 -325 -151 -670h-180zM338 1836l162 94l160 -314l-110 -64zM429 830h343q-76 244 -172 480q-95 -234 -171 -480z" />
<glyph unicode="&#xc1;" d="M50 0q134 720 460 1500h180q338 -780 460 -1500h-180q-57 341 -150 670h-439q-91 -325 -151 -670h-180zM429 830h343q-76 244 -172 480q-95 -234 -171 -480zM546 1616l160 314l162 -94l-212 -284z" />
<glyph unicode="&#xc2;" d="M50 0q134 720 460 1500h180q338 -780 460 -1500h-180q-57 341 -150 670h-439q-91 -325 -151 -670h-180zM338 1646l212 284h106l212 -284l-111 -72l-154 192l-156 -192zM429 830h343q-76 244 -172 480q-95 -234 -171 -480z" />
<glyph unicode="&#xc3;" d="M50 0q134 720 460 1500h180q338 -780 460 -1500h-180q-57 341 -150 670h-439q-91 -325 -151 -670h-180zM339 1657q25 227 173 227q77 0 119 -70q36 -60 55 -60q54 0 68 89h103q-25 -227 -173 -227q-77 0 -120 77q-32 57 -52 57q-54 0 -70 -93h-103zM429 830h343 q-76 244 -172 480q-95 -234 -171 -480z" />
<glyph unicode="&#xc4;" d="M50 0q134 720 460 1500h180q338 -780 460 -1500h-180q-57 341 -150 670h-439q-91 -325 -151 -670h-180zM300 1749q0 57 40 94.5t94 37.5q59 0 94 -36q40 -41 40 -96t-40 -94q-39 -38 -94 -38q-57 0 -94 36q-40 39 -40 96zM429 830h343q-76 244 -172 480 q-95 -234 -171 -480zM632 1749q0 57 40 94.5t94 37.5q59 0 94 -36q40 -41 40 -96t-40 -94q-39 -38 -94 -38q-57 0 -94 36q-40 39 -40 96z" />
<glyph unicode="&#xc5;" d="M50 0q134 720 460 1500h180q338 -780 460 -1500h-180q-57 341 -150 670h-439q-91 -325 -151 -670h-180zM429 830h343q-76 244 -172 480q-95 -234 -171 -480zM429 1744q0 70 50 118t121 48q72 0 121 -48q50 -49 50 -118q0 -70 -50 -118t-121 -48t-121 48.5t-50 117.5z M539 1745q0 -25 18 -46q17 -20 43 -20q28 0 44 19q17 20 17 47q0 25 -18 46q-17 20 -43 20t-43.5 -19.5t-17.5 -46.5z" />
<glyph unicode="&#xc6;" d="M10 0q146 810 460 1500h656v-160h-318v-510h248v-160h-248v-510h382v-160h-542v670h-324q-84 -323 -144 -670h-170zM368 830h280v510h-90q-106 -225 -190 -510z" />
<glyph unicode="&#xc7;" d="M110 750q0 334 106 533q126 237 384 237q259 0 384 -237q31 -59 49 -117h-186q-7 17 -15 32q-90 169 -232 169q-141 0 -232 -169q-78 -145 -78 -448q0 -309 78 -448q95 -169 232 -169q142 0 232 169q8 15 15 32h186q-23 -68 -49 -117q-102 -195 -295 -229q26 -53 26 -114 q0 -194 -214 -284v189q82 39 82 111q0 51 -29 92q-224 20 -338 235q-106 200 -106 533z" />
<glyph unicode="&#xc8;" d="M186 0v1500h760v-160h-580v-510h455v-160h-455v-510h648v-160h-828zM338 1836l162 94l160 -314l-110 -64z" />
<glyph unicode="&#xc9;" d="M186 0v1500h760v-160h-580v-510h455v-160h-455v-510h648v-160h-828zM546 1616l160 314l162 -94l-212 -284z" />
<glyph unicode="&#xca;" d="M186 0v1500h760v-160h-580v-510h455v-160h-455v-510h648v-160h-828zM338 1646l212 284h106l212 -284l-111 -72l-154 192l-156 -192z" />
<glyph unicode="&#xcb;" d="M186 0v1500h760v-160h-580v-510h455v-160h-455v-510h648v-160h-828zM300 1749q0 57 40 94.5t94 37.5q59 0 94 -36q40 -41 40 -96t-40 -94q-39 -38 -94 -38q-57 0 -94 36q-40 39 -40 96zM632 1749q0 57 40 94.5t94 37.5q59 0 94 -36q40 -41 40 -96t-40 -94 q-39 -38 -94 -38q-57 0 -94 36q-40 39 -40 96z" />
<glyph unicode="&#xcc;" d="M186 0v160h324v1180h-324v160h828v-160h-324v-1180h324v-160h-828zM338 1836l162 94l160 -314l-110 -64z" />
<glyph unicode="&#xcd;" d="M186 0v160h324v1180h-324v160h828v-160h-324v-1180h324v-160h-828zM546 1616l160 314l162 -94l-212 -284z" />
<glyph unicode="&#xce;" d="M186 0v160h324v1180h-324v160h828v-160h-324v-1180h324v-160h-828zM338 1646l212 284h106l212 -284l-111 -72l-154 192l-156 -192z" />
<glyph unicode="&#xcf;" d="M186 0v160h324v1180h-324v160h828v-160h-324v-1180h324v-160h-828zM300 1749q0 57 40 94.5t94 37.5q59 0 94 -36q40 -41 40 -96t-40 -94q-39 -38 -94 -38q-57 0 -94 36q-40 39 -40 96zM632 1749q0 57 40 94.5t94 37.5q59 0 94 -36q40 -41 40 -96t-40 -94q-39 -38 -94 -38 q-57 0 -94 36q-40 39 -40 96z" />
<glyph unicode="&#xd0;" d="M80 680v140h70v680h400q309 0 434 -237q106 -201 106 -513q0 -310 -105 -513q-124 -237 -434 -237h-401v680h-70zM329 153h222q193 0 282 169q77 146 77 428q0 283 -78 428q-91 169 -282 169h-220v-527h324v-140h-325v-527z" />
<glyph unicode="&#xd1;" d="M150 0v1500h180q402 -466 560 -1038v1038h160v-1500h-160q-244 843 -580 1264v-1264h-160zM339 1657q25 227 173 227q77 0 119 -70q36 -60 55 -60q54 0 68 89h103q-25 -227 -173 -227q-77 0 -120 77q-32 57 -52 57q-54 0 -70 -93h-103z" />
<glyph unicode="&#xd2;" d="M110 750q0 333 106 533q126 237 384 237q260 0 384 -237q106 -203 106 -533t-106 -533q-124 -237 -384 -237q-258 0 -384 237q-106 200 -106 533zM290 750q0 -309 78 -448q95 -169 232 -169q142 0 232 169q78 146 78 448q0 298 -78 448q-90 169 -232 169 q-141 0 -232 -169q-78 -145 -78 -448zM338 1836l162 94l160 -314l-110 -64z" />
<glyph unicode="&#xd3;" d="M110 750q0 333 106 533q126 237 384 237q260 0 384 -237q106 -203 106 -533t-106 -533q-124 -237 -384 -237q-258 0 -384 237q-106 200 -106 533zM290 750q0 -309 78 -448q95 -169 232 -169q142 0 232 169q78 146 78 448q0 298 -78 448q-90 169 -232 169 q-141 0 -232 -169q-78 -145 -78 -448zM546 1616l160 314l162 -94l-212 -284z" />
<glyph unicode="&#xd4;" d="M110 750q0 333 106 533q126 237 384 237q260 0 384 -237q106 -203 106 -533t-106 -533q-124 -237 -384 -237q-258 0 -384 237q-106 200 -106 533zM290 750q0 -309 78 -448q95 -169 232 -169q142 0 232 169q78 146 78 448q0 298 -78 448q-90 169 -232 169 q-141 0 -232 -169q-78 -145 -78 -448zM338 1646l212 284h106l212 -284l-111 -72l-154 192l-156 -192z" />
<glyph unicode="&#xd5;" d="M110 750q0 333 106 533q126 237 384 237q260 0 384 -237q106 -203 106 -533t-106 -533q-124 -237 -384 -237q-258 0 -384 237q-106 200 -106 533zM290 750q0 -309 78 -448q95 -169 232 -169q142 0 232 169q78 146 78 448q0 298 -78 448q-90 169 -232 169 q-141 0 -232 -169q-78 -145 -78 -448zM339 1657q25 227 173 227q77 0 119 -70q36 -60 55 -60q54 0 68 89h103q-25 -227 -173 -227q-77 0 -120 77q-32 57 -52 57q-54 0 -70 -93h-103z" />
<glyph unicode="&#xd6;" d="M110 750q0 333 106 533q126 237 384 237q260 0 384 -237q106 -203 106 -533t-106 -533q-124 -237 -384 -237q-258 0 -384 237q-106 200 -106 533zM290 750q0 -309 78 -448q95 -169 232 -169q142 0 232 169q78 146 78 448q0 298 -78 448q-90 169 -232 169 q-141 0 -232 -169q-78 -145 -78 -448zM300 1749q0 57 40 94.5t94 37.5q59 0 94 -36q40 -41 40 -96t-40 -94q-39 -38 -94 -38q-57 0 -94 36q-40 39 -40 96zM632 1749q0 57 40 94.5t94 37.5q59 0 94 -36q40 -41 40 -96t-40 -94q-39 -38 -94 -38q-57 0 -94 36q-40 39 -40 96z " />
<glyph unicode="&#xd7;" d="M251 514l236 236l-236 236l113 113l236 -236l236 236l113 -113l-236 -236l236 -236l-113 -113l-236 236l-236 -236z" />
<glyph unicode="&#xd8;" d="M110 750q0 334 106 533q126 237 384 237q174 0 287 -106l46 86h137l-101 -190q8 -13 15 -27q106 -212 106 -533q0 -330 -106 -533q-124 -237 -384 -237q-172 0 -285 105l-46 -85h-139l101 190q-7 13 -15 27q-106 200 -106 533zM290 750q0 -232 44 -369l466 870 q-82 116 -200 116q-141 0 -232 -169q-78 -145 -78 -448zM402 249q85 -116 198 -116q142 0 232 169q78 146 78 448q0 226 -45 367z" />
<glyph unicode="&#xd9;" d="M150 434v1066h180v-1066q0 -121 65 -203q78 -98 205 -98q122 0 205 100q65 78 65 201v1066h180v-1066q0 -183 -119 -314q-127 -140 -331 -140q-201 0 -334 141q-116 122 -116 313zM338 1836l162 94l160 -314l-110 -64z" />
<glyph unicode="&#xda;" d="M150 434v1066h180v-1066q0 -121 65 -203q78 -98 205 -98q122 0 205 100q65 78 65 201v1066h180v-1066q0 -183 -119 -314q-127 -140 -331 -140q-201 0 -334 141q-116 122 -116 313zM546 1616l160 314l162 -94l-212 -284z" />
<glyph unicode="&#xdb;" d="M150 434v1066h180v-1066q0 -121 65 -203q78 -98 205 -98q122 0 205 100q65 78 65 201v1066h180v-1066q0 -183 -119 -314q-127 -140 -331 -140q-201 0 -334 141q-116 122 -116 313zM338 1646l212 284h106l212 -284l-111 -72l-154 192l-156 -192z" />
<glyph unicode="&#xdc;" d="M150 434v1066h180v-1066q0 -121 65 -203q78 -98 205 -98q122 0 205 100q65 78 65 201v1066h180v-1066q0 -183 -119 -314q-127 -140 -331 -140q-201 0 -334 141q-116 122 -116 313zM300 1749q0 57 40 94.5t94 37.5q59 0 94 -36q40 -41 40 -96t-40 -94q-39 -38 -94 -38 q-57 0 -94 36q-40 39 -40 96zM632 1749q0 57 40 94.5t94 37.5q59 0 94 -36q40 -41 40 -96t-40 -94q-39 -38 -94 -38q-57 0 -94 36q-40 39 -40 96z" />
<glyph unicode="&#xdd;" d="M100 1500h180q142 -400 320 -733q186 329 320 733h180q-144 -430 -410 -908v-592h-180v592q-260 478 -410 908zM546 1616l160 314l162 -94l-212 -284z" />
<glyph unicode="&#xde;" d="M150 0v1500h180v-250h216q203 0 339 -119q165 -144 165 -381q0 -239 -166 -384q-133 -116 -338 -116h-216v-250h-180zM330 403h216q147 0 229 87q95 101 95 260t-99 258q-90 89 -225 89h-216v-694z" />
<glyph unicode="&#xdf;" d="M198 0v1143q0 166 107 269q113 108 284 108q170 0 284 -108q111 -106 111 -269q0 -216 -193 -318q259 -122 259 -391q0 -180 -119 -314q-126 -140 -331 -140v153q120 0 203 100q67 81 67 201q0 122 -79.5 214.5t-253.5 92.5v155q148 0 207 54q71 65 71 178q0 122 -63 177 q-69 60 -161 60q-105 0 -161 -63q-51 -57 -52 -159v-1143h-180z" />
<glyph unicode="&#xe0;" d="M180 299q0 177 141 276q110 78 260 78h236q0 140 -31 199q-59 112 -191 112q-159 0 -222 -130l-115 126q121 160 360 160q203 0 313 -162q71 -105 71 -304v-654h-180v237q-83 -257 -309 -257q-162 0 -252 106q-81 95 -81 213zM334 1434l162 94l160 -314l-110 -64z M352 307q0 -67 44 -115q54 -59 153 -59q105 0 173 86q100 124 100 288h-238q-112 0 -176 -59q-56 -52 -56 -141z" />
<glyph unicode="&#xe1;" d="M180 299q0 177 141 276q110 78 260 78h236q0 140 -31 199q-59 112 -191 112q-159 0 -222 -130l-115 126q121 160 360 160q203 0 313 -162q71 -105 71 -304v-654h-180v237q-83 -257 -309 -257q-162 0 -252 106q-81 95 -81 213zM352 307q0 -67 44 -115q54 -59 153 -59 q105 0 173 86q100 124 100 288h-238q-112 0 -176 -59q-56 -52 -56 -141zM546 1214l160 314l162 -94l-212 -284z" />
<glyph unicode="&#xe2;" d="M180 299q0 177 141 276q110 78 260 78h236q0 140 -31 199q-59 112 -191 112q-159 0 -222 -130l-115 126q121 160 360 160q203 0 313 -162q71 -105 71 -304v-654h-180v237q-83 -257 -309 -257q-162 0 -252 106q-81 95 -81 213zM338 1244l212 284h106l212 -284l-111 -72 l-154 192l-156 -192zM352 307q0 -67 44 -115q54 -59 153 -59q105 0 173 86q100 124 100 288h-238q-112 0 -176 -59q-56 -52 -56 -141z" />
<glyph unicode="&#xe3;" d="M180 299q0 177 141 276q110 78 260 78h236q0 140 -31 199q-59 112 -191 112q-159 0 -222 -130l-115 126q121 160 360 160q203 0 313 -162q71 -105 71 -304v-654h-180v237q-83 -257 -309 -257q-162 0 -252 106q-81 95 -81 213zM342 1298q25 227 173 227q77 0 119 -70 q36 -60 55 -60q54 0 68 89h103q-25 -227 -173 -227q-77 0 -120 77q-32 57 -52 57q-54 0 -70 -93h-103zM352 307q0 -67 44 -115q54 -59 153 -59q105 0 173 86q100 124 100 288h-238q-112 0 -176 -59q-56 -52 -56 -141z" />
<glyph unicode="&#xe4;" d="M180 299q0 177 141 276q110 78 260 78h236q0 140 -31 199q-59 112 -191 112q-159 0 -222 -130l-115 126q121 160 360 160q203 0 313 -162q71 -105 71 -304v-654h-180v237q-83 -257 -309 -257q-162 0 -252 106q-81 95 -81 213zM300 1388q0 57 40 94.5t94 37.5q59 0 94 -36 q40 -41 40 -96t-40 -94q-39 -38 -94 -38q-57 0 -94 36q-40 39 -40 96zM352 307q0 -67 44 -115q54 -59 153 -59q105 0 173 86q100 124 100 288h-238q-112 0 -176 -59q-56 -52 -56 -141zM632 1388q0 57 40 94.5t94 37.5q59 0 94 -36q40 -41 40 -96t-40 -94q-39 -38 -94 -38 q-57 0 -94 36q-40 39 -40 96z" />
<glyph unicode="&#xe5;" d="M180 299q0 177 141 276q110 78 260 78h236q0 140 -31 199q-59 112 -191 112q-159 0 -222 -130l-115 126q121 160 360 160q203 0 313 -162q71 -105 71 -304v-654h-180v237q-83 -257 -309 -257q-162 0 -252 106q-81 95 -81 213zM352 307q0 -67 44 -115q54 -59 153 -59 q105 0 173 86q100 124 100 288h-238q-112 0 -176 -59q-56 -52 -56 -141zM429 1386q0 70 50 118t121 48q72 0 121 -48q50 -49 50 -118q0 -70 -50 -118t-121 -48t-121 48.5t-50 117.5zM539 1387q0 -25 18 -46q17 -20 43 -20q28 0 44 19q17 20 17 47q0 25 -18 46q-17 20 -43 20 t-43.5 -19.5t-17.5 -46.5z" />
<glyph unicode="&#xe6;" d="M86 335q0 153 89 259q80 96 230 96h120v76q0 100 -31 142q-42 57 -118 58q-77 0 -130 -58q-20 -22 -26 -40l-116 97q19 40 42 65q84 90 239 90q133 0 217 -113q82 113 213 113q141 0 218 -92q81 -97 81 -263v-183l-434 -194v-54q0 -89 26 -142q29 -59 109 -59 q77 0 115 59q37 58 37 142h147q-1 -169 -81 -262q-79 -92 -218 -92q-86 0 -132 20h-168v64q-43 -84 -130 -84q-143 0 -218 92q-81 99 -81 263zM242 335q0 -92 32 -139q41 -62 120 -63q130 0 130 163v241h-119q-89 0 -131 -63q-32 -48 -32 -139zM680 549l287 113v103 q0 91 -33 140q-42 63 -114 63q-71 0 -107 -54q-33 -50 -33 -149v-216z" />
<glyph unicode="&#xe7;" d="M170 550q0 257 116 410q121 160 314 160q195 0 314 -160q60 -81 91 -195h-180q-11 38 -26 69q-62 129 -199 129q-136 0 -199 -129q-51 -105 -51 -284t51 -284q63 -129 199 -129q137 0 199 129q15 31 26 68h180q-31 -112 -91 -194q-90 -122 -226 -151q27 -53 27 -115 q0 -194 -214 -284v189q82 39 82 111q0 51 -29 92q-162 18 -268 158q-116 153 -116 410z" />
<glyph unicode="&#xe8;" d="M170 550q0 257 116 410q121 160 314 160q192 0 314 -160q108 -142 115 -374l-667 -193q13 -73 39 -127q62 -129 199 -129t199 129q15 31 26 68h180q-31 -114 -91 -194q-120 -160 -314 -160q-193 0 -314 160q-116 153 -116 410zM334 1434l162 94l160 -314l-110 -64z M350 550l490 142q-12 83 -41 142q-63 129 -199 129t-199 -129q-51 -105 -51 -284z" />
<glyph unicode="&#xe9;" d="M170 550q0 257 116 410q121 160 314 160q192 0 314 -160q108 -142 115 -374l-667 -193q13 -73 39 -127q62 -129 199 -129t199 129q15 31 26 68h180q-31 -114 -91 -194q-120 -160 -314 -160q-193 0 -314 160q-116 153 -116 410zM350 550l490 142q-12 83 -41 142 q-63 129 -199 129t-199 -129q-51 -105 -51 -284zM546 1214l160 314l162 -94l-212 -284z" />
<glyph unicode="&#xea;" d="M170 550q0 257 116 410q121 160 314 160q192 0 314 -160q108 -142 115 -374l-667 -193q13 -73 39 -127q62 -129 199 -129t199 129q15 31 26 68h180q-31 -114 -91 -194q-120 -160 -314 -160q-193 0 -314 160q-116 153 -116 410zM338 1244l212 284h106l212 -284l-111 -72 l-154 192l-156 -192zM350 550l490 142q-12 83 -41 142q-63 129 -199 129t-199 -129q-51 -105 -51 -284z" />
<glyph unicode="&#xeb;" d="M170 550q0 257 116 410q121 160 314 160q192 0 314 -160q108 -142 115 -374l-667 -193q13 -73 39 -127q62 -129 199 -129t199 129q15 31 26 68h180q-31 -114 -91 -194q-120 -160 -314 -160q-193 0 -314 160q-116 153 -116 410zM300 1388q0 57 40 94.5t94 37.5 q59 0 94 -36q40 -41 40 -96t-40 -94q-39 -38 -94 -38q-57 0 -94 36q-40 39 -40 96zM350 550l490 142q-12 83 -41 142q-63 129 -199 129t-199 -129q-51 -105 -51 -284zM632 1388q0 57 40 94.5t94 37.5q59 0 94 -36q40 -41 40 -96t-40 -94q-39 -38 -94 -38q-57 0 -94 36 q-40 39 -40 96z" />
<glyph unicode="&#xec;" d="M186 940v160h504v-699q0 -140 51 -206q48 -62 144 -62q101 0 173 86l92 -122q-100 -117 -275 -117q-178 0 -274 112q-91 106 -91 309v539h-324zM334 1434l162 94l160 -314l-110 -64z" />
<glyph unicode="&#xed;" d="M186 940v160h504v-699q0 -140 51 -206q48 -62 144 -62q101 0 173 86l92 -122q-100 -117 -275 -117q-178 0 -274 112q-91 106 -91 309v539h-324zM546 1214l160 314l162 -94l-212 -284z" />
<glyph unicode="&#xee;" d="M186 940v160h504v-699q0 -140 51 -206q48 -62 144 -62q101 0 173 86l92 -122q-100 -117 -275 -117q-178 0 -274 112q-91 106 -91 309v539h-324zM263 1244l212 284h106l212 -284l-111 -72l-154 192l-156 -192z" />
<glyph unicode="&#xef;" d="M186 940v160h504v-699q0 -140 51 -206q48 -62 144 -62q101 0 173 86l92 -122q-100 -117 -275 -117q-178 0 -274 112q-91 106 -91 309v539h-324zM212 1388q0 57 40 94.5t94 37.5q59 0 94 -36q40 -41 40 -96t-40 -94q-39 -38 -94 -38q-57 0 -94 36q-40 39 -40 96zM544 1388 q0 57 40 94.5t94 37.5q59 0 94 -36q40 -41 40 -96t-40 -94q-39 -38 -94 -38q-57 0 -94 36q-40 39 -40 96z" />
<glyph unicode="&#xf0;" d="M130 491q0 213 130 358q126 139 314 139q225 0 328 -291q0 383 -70 511q-6 11 -12 21l-196 -157l-93 102l198 159q-64 47 -145 47q-90 0 -150 -48l-82 127q97 61 228 61q160 0 269 -91l168 135l93 -102l-171 -137q13 -20 25 -42q106 -194 106 -533q0 -333 -106 -533 q-126 -237 -384 -237q-214 0 -335 158q-115 150 -115 353zM310 488q0 -135 66 -237q76 -118 204 -118q125 0 204 118q66 99 66 237q0 148 -78 247q-79 100 -192 100t-192 -100q-78 -99 -78 -247z" />
<glyph unicode="&#xf1;" d="M186 0v1100h180v-237q85 257 317 257q142 0 240 -112q91 -104 91 -309v-699h-180v699q0 141 -51 206q-48 62 -144 62q-101 0 -173 -86q-100 -119 -100 -289v-592h-180zM342 1298q25 227 173 227q77 0 119 -70q36 -60 55 -60q54 0 68 89h103q-25 -227 -173 -227 q-77 0 -120 77q-32 57 -52 57q-54 0 -70 -93h-103z" />
<glyph unicode="&#xf2;" d="M170 550q0 257 116 410q121 160 314 160t314 -160q116 -153 116 -410t-116 -410q-121 -160 -314 -160t-314 160q-116 153 -116 410zM334 1434l162 94l160 -314l-110 -64zM350 550q0 -179 51 -284q63 -129 199 -129t199 129q51 105 51 284t-51 284q-63 129 -199 129 t-199 -129q-51 -105 -51 -284z" />
<glyph unicode="&#xf3;" d="M170 550q0 257 116 410q121 160 314 160t314 -160q116 -153 116 -410t-116 -410q-121 -160 -314 -160t-314 160q-116 153 -116 410zM350 550q0 -179 51 -284q63 -129 199 -129t199 129q51 105 51 284t-51 284q-63 129 -199 129t-199 -129q-51 -105 -51 -284zM546 1214 l160 314l162 -94l-212 -284z" />
<glyph unicode="&#xf4;" d="M170 550q0 257 116 410q121 160 314 160t314 -160q116 -153 116 -410t-116 -410q-121 -160 -314 -160t-314 160q-116 153 -116 410zM338 1244l212 284h106l212 -284l-111 -72l-154 192l-156 -192zM350 550q0 -179 51 -284q63 -129 199 -129t199 129q51 105 51 284 t-51 284q-63 129 -199 129t-199 -129q-51 -105 -51 -284z" />
<glyph unicode="&#xf5;" d="M170 550q0 257 116 410q121 160 314 160t314 -160q116 -153 116 -410t-116 -410q-121 -160 -314 -160t-314 160q-116 153 -116 410zM342 1298q25 227 173 227q77 0 119 -70q36 -60 55 -60q54 0 68 89h103q-25 -227 -173 -227q-77 0 -120 77q-32 57 -52 57q-54 0 -70 -93 h-103zM350 550q0 -179 51 -284q63 -129 199 -129t199 129q51 105 51 284t-51 284q-63 129 -199 129t-199 -129q-51 -105 -51 -284z" />
<glyph unicode="&#xf6;" d="M170 550q0 257 116 410q121 160 314 160t314 -160q116 -153 116 -410t-116 -410q-121 -160 -314 -160t-314 160q-116 153 -116 410zM300 1388q0 57 40 94.5t94 37.5q59 0 94 -36q40 -41 40 -96t-40 -94q-39 -38 -94 -38q-57 0 -94 36q-40 39 -40 96zM350 550 q0 -179 51 -284q63 -129 199 -129t199 129q51 105 51 284t-51 284q-63 129 -199 129t-199 -129q-51 -105 -51 -284zM632 1388q0 57 40 94.5t94 37.5q59 0 94 -36q40 -41 40 -96t-40 -94q-39 -38 -94 -38q-57 0 -94 36q-40 39 -40 96z" />
<glyph unicode="&#xf7;" d="M186 670v160h828v-160h-828zM466 424q0 57 40 94.5t94 37.5q59 0 94 -36q40 -41 40 -96t-40 -94q-39 -38 -94 -38q-57 0 -94 36q-40 39 -40 96zM466 1060q0 57 40 94.5t94 37.5q59 0 94 -36q40 -41 40 -96t-40 -94q-39 -38 -94 -38q-57 0 -94 36q-40 39 -40 96z" />
<glyph unicode="&#xf8;" d="M170 550q0 257 116 410q121 160 314 160q116 0 206 -58l20 38h137l-64 -121q7 -9 15 -19q116 -145 116 -410q0 -257 -116 -410q-121 -160 -314 -160q-115 0 -204 57l-20 -37h-139l65 121q-8 9 -16 19q-116 145 -116 410zM350 550q0 -161 41 -262l340 634q-54 41 -131 41 q-136 0 -199 -129q-51 -105 -51 -284zM471 177q53 -40 129 -40q136 0 199 129q51 104 51 284q0 160 -41 261z" />
<glyph unicode="&#xf9;" d="M186 401v699h180v-699q0 -141 51 -206q48 -62 144 -62q101 0 173 86q100 119 100 289v592h180v-1100h-180v237q-85 -257 -317 -257q-142 0 -240 112q-91 104 -91 309zM334 1434l162 94l160 -314l-110 -64z" />
<glyph unicode="&#xfa;" d="M186 401v699h180v-699q0 -141 51 -206q48 -62 144 -62q101 0 173 86q100 119 100 289v592h180v-1100h-180v237q-85 -257 -317 -257q-142 0 -240 112q-91 104 -91 309zM546 1214l160 314l162 -94l-212 -284z" />
<glyph unicode="&#xfb;" d="M186 401v699h180v-699q0 -141 51 -206q48 -62 144 -62q101 0 173 86q100 119 100 289v592h180v-1100h-180v237q-85 -257 -317 -257q-142 0 -240 112q-91 104 -91 309zM338 1244l212 284h106l212 -284l-111 -72l-154 192l-156 -192z" />
<glyph unicode="&#xfc;" d="M186 401v699h180v-699q0 -141 51 -206q48 -62 144 -62q101 0 173 86q100 119 100 289v592h180v-1100h-180v237q-85 -257 -317 -257q-142 0 -240 112q-91 104 -91 309zM300 1388q0 57 40 94.5t94 37.5q59 0 94 -36q40 -41 40 -96t-40 -94q-39 -38 -94 -38q-57 0 -94 36 q-40 39 -40 96zM632 1388q0 57 40 94.5t94 37.5q59 0 94 -36q40 -41 40 -96t-40 -94q-39 -38 -94 -38q-57 0 -94 36q-40 39 -40 96z" />
<glyph unicode="&#xfd;" d="M186 401v699h180v-699q0 -141 51 -206q48 -62 144 -62q101 0 173 86q100 119 100 289v592h180v-950q0 -261 -116 -410q-125 -160 -319 -160q-190 0 -315 168l137 89q63 -100 183 -100q136 0 199 129q51 105 51 284v87q-85 -257 -317 -257q-142 0 -240 112 q-91 104 -91 309zM546 1214l160 314l162 -94l-212 -284z" />
<glyph unicode="&#xfe;" d="M196 -400v1900h170v-538q56 158 234 158q193 0 314 -160q116 -153 116 -410t-116 -410q-121 -160 -314 -160q-165 0 -234 158v-538h-170zM364 550q0 -179 51 -284q63 -129 185 -129q136 0 199 129q51 105 51 284t-51 284q-63 129 -199 129q-122 0 -185 -129 q-51 -105 -51 -284z" />
<glyph unicode="&#xff;" d="M186 401v699h180v-699q0 -141 51 -206q48 -62 144 -62q101 0 173 86q100 119 100 289v592h180v-950q0 -261 -116 -410q-125 -160 -319 -160q-190 0 -315 168l137 89q63 -100 183 -100q136 0 199 129q51 105 51 284v87q-85 -257 -317 -257q-142 0 -240 112 q-91 104 -91 309zM300 1388q0 57 40 94.5t94 37.5q59 0 94 -36q40 -41 40 -96t-40 -94q-39 -38 -94 -38q-57 0 -94 36q-40 39 -40 96zM632 1388q0 57 40 94.5t94 37.5q59 0 94 -36q40 -41 40 -96t-40 -94q-39 -38 -94 -38q-57 0 -94 36q-40 39 -40 96z" />
<glyph unicode="&#x152;" d="M109 750q0 312 106 513q125 237 433 237h478v-160h-308v-510h238v-160h-238v-510h372v-160h-542q-311 0 -434 237q-105 203 -105 513zM279 750q0 -282 77 -428q89 -169 292 -169v1194q-200 0 -291 -169q-78 -145 -78 -428z" />
<glyph unicode="&#x153;" d="M85 334v431q0 167 86 266q77 88 213 89q140 0 216 -128q82 128 220 128q136 0 214 -92q81 -97 81 -263v-183l-429 -194v-54q0 -96 24 -138q38 -62 117 -62q74 0 107 64q24 46 24 136h157q-1 -170 -80 -262t-214 -92q-155 0 -224 126q-85 -126 -213 -126q-153 0 -225 94 q-74 95 -74 260zM249 334q0 -97 22 -134q42 -67 114 -67q80 0 117 77q20 42 20 124v431q0 96 -32 143q-41 59 -108 60q-70 0 -106 -54q-27 -42 -27 -149v-431zM686 549l272 110v106q0 98 -27 141q-40 62 -106 62q-72 0 -108 -57q-31 -49 -31 -146v-216z" />
<glyph unicode="&#x178;" d="M100 1500h180q142 -400 320 -733q186 329 320 733h180q-144 -430 -410 -908v-592h-180v592q-260 478 -410 908zM300 1749q0 57 40 94.5t94 37.5q59 0 94 -36q40 -41 40 -96t-40 -94q-39 -38 -94 -38q-57 0 -94 36q-40 39 -40 96zM632 1749q0 57 40 94.5t94 37.5 q59 0 94 -36q40 -41 40 -96t-40 -94q-39 -38 -94 -38q-57 0 -94 36q-40 39 -40 96z" />
<glyph unicode="&#x2c6;" d="M338 1244l212 284h106l212 -284l-111 -72l-154 192l-156 -192z" />
<glyph unicode="&#x2dc;" d="M342 1298q25 227 173 227q77 0 119 -70q36 -60 55 -60q54 0 68 89h103q-25 -227 -173 -227q-77 0 -120 77q-32 57 -52 57q-54 0 -70 -93h-103z" />
<glyph unicode="&#x2000;" horiz-adv-x="965" />
<glyph unicode="&#x2001;" horiz-adv-x="1930" />
<glyph unicode="&#x2002;" horiz-adv-x="965" />
<glyph unicode="&#x2003;" horiz-adv-x="1930" />
<glyph unicode="&#x2004;" horiz-adv-x="643" />
<glyph unicode="&#x2005;" horiz-adv-x="482" />
<glyph unicode="&#x2006;" horiz-adv-x="321" />
<glyph unicode="&#x2007;" horiz-adv-x="321" />
<glyph unicode="&#x2008;" horiz-adv-x="241" />
<glyph unicode="&#x2009;" horiz-adv-x="386" />
<glyph unicode="&#x200a;" horiz-adv-x="107" />
<glyph unicode="&#x2010;" d="M186 670v160h828v-160h-828z" />
<glyph unicode="&#x2011;" d="M186 670v160h828v-160h-828z" />
<glyph unicode="&#x2012;" d="M186 670v160h828v-160h-828z" />
<glyph unicode="&#x2013;" d="M186 670v160h828v-160h-828z" />
<glyph unicode="&#x2014;" d="M50 670v160h1100v-160h-1100z" />
<glyph unicode="&#x2018;" d="M485 1235q0 175 231 285v-116q-72 -68 -72 -167q0 -62 58 -141l-163 -70q-54 95 -54 209z" />
<glyph unicode="&#x2019;" d="M485 1026v116q72 68 72 167q0 62 -58 141l163 70q54 -95 54 -209q0 -175 -231 -285z" />
<glyph unicode="&#x201a;" d="M485 -176q72 68 72 167q0 62 -58 141l163 70q54 -95 54 -209q0 -175 -231 -285v116z" />
<glyph unicode="&#x201c;" d="M341 1235q0 175 231 285v-116q-72 -68 -72 -167q0 -62 58 -141l-163 -70q-54 95 -54 209zM628 1235q0 175 231 285v-116q-72 -68 -72 -167q0 -62 58 -141l-163 -70q-54 95 -54 209z" />
<glyph unicode="&#x201d;" d="M341 1026v116q72 68 72 167q0 62 -58 141l163 70q54 -95 54 -209q0 -175 -231 -285zM628 1026v116q72 68 72 167q0 62 -58 141l163 70q54 -95 54 -209q0 -175 -231 -285z" />
<glyph unicode="&#x201e;" d="M341 -176q72 68 72 167q0 62 -58 141l163 70q54 -95 54 -209q0 -175 -231 -285v116zM628 -176q72 68 72 167q0 62 -58 141l163 70q54 -95 54 -209q0 -175 -231 -285v116z" />
<glyph unicode="&#x2022;" d="M262 759q0 131 98 229q97 97 240 97q141 0 240 -97q98 -96 98 -235q0 -142 -98 -236q-101 -97 -240 -97q-142 0 -240 100t-98 239z" />
<glyph unicode="&#x2026;" d="M94 112q0 57 40 94.5t94 37.5q59 0 94 -36q40 -41 40 -96t-40 -94q-39 -38 -94 -38q-57 0 -94 36q-40 39 -40 96zM466 112q0 57 40 94.5t94 37.5q59 0 94 -36q40 -41 40 -96t-40 -94q-39 -38 -94 -38q-57 0 -94 36q-40 39 -40 96zM838 112q0 57 40 94.5t94 37.5 q59 0 94 -36q40 -41 40 -96t-40 -94q-39 -38 -94 -38q-57 0 -94 36q-40 39 -40 96z" />
<glyph unicode="&#x202f;" horiz-adv-x="386" />
<glyph unicode="&#x2039;" d="M350 726v49l322 391l123 -103l-270 -311l270 -313l-123 -103z" />
<glyph unicode="&#x203a;" d="M405 439l270 313l-270 311l123 103l322 -391v-49l-322 -390z" />
<glyph unicode="&#x205f;" horiz-adv-x="482" />
<glyph unicode="&#x20ac;" d="M50 568v120h178q-1 30 -1 62q0 30 1 58h-178v120h185q22 212 98 355q126 237 384 237q259 0 384 -237q31 -59 49 -117h-186q-7 17 -15 32q-90 169 -232 169t-232 -169q-53 -99 -70 -270h463v-120h-470q-1 -28 -1 -58q0 -32 1 -62h470v-120h-463q17 -172 70 -266 q95 -169 232 -169q142 0 232 169q8 15 15 32h186q-23 -67 -49 -117q-124 -237 -384 -237q-259 0 -384 237q-75 142 -97 351h-186z" />
<glyph unicode="&#x2122;" d="M10 1370v130h520v-130h-190v-620h-140v620h-190zM545 750v750h130q117 -185 174 -381q57 189 176 381h130v-750h-140v489q-98 -173 -98 -309h-137q0 134 -95 309v-489h-140z" />
<glyph unicode="&#xe000;" horiz-adv-x="1100" d="M0 1100h1100v-1100h-1100v1100z" />
<glyph unicode="&#xfb01;" d="M150 820v140h100v139q0 201 90 308q94 112 264 113q176 0 276 -117l-92 -122q-78 89 -174 89q-100 0 -151 -65q-53 -67 -53 -206v-139h533v-559q0 -136 56 -207q48 -61 149 -61v-153q-209 0 -304 136q-71 104 -71 285v419h-363v-820h-160v820h-100z" />
<glyph unicode="&#xfb02;" d="M140 820v140h100v139q0 201 90 308q95 113 264 113q73 0 133 -20h206v-1099q0 -136 56 -207q48 -61 149 -61v-153q-178 0 -274 112q-91 106 -91 309v886q-76 83 -169 83q-100 0 -151 -65q-53 -67 -53 -206v-139h184v-140h-184v-820h-160v820h-100z" />
<glyph unicode="&#xfb03;" d="M0 820v140h100v139q0 201 90 308q95 113 264 113q112 0 193 -47q77 47 187 47q175 0 276 -117l-92 -122q-78 89 -174 89q-100 0 -151 -65q-53 -67 -53 -206v-139h355v-559q0 -136 56 -207q48 -61 149 -61v-153q-178 0 -274 112q-91 106 -91 309v419h-195v-820h-160v820 h-220v-820h-160v820h-100zM260 960h220v139q0 158 56 258q-35 13 -72 13q-100 0 -151 -65q-53 -67 -53 -206v-139z" />
<glyph unicode="&#xfb04;" d="M0 820v140h100v139q0 201 90 308q95 113 264 113q112 0 193 -47q80 47 187 47q71 0 133 -20h28v-1099q0 -137 56 -207q48 -61 149 -61v-153q-178 0 -274 112q-91 106 -91 309v969q-93 -3 -142 -65q-53 -67 -53 -206v-139h114v-140h-114v-820h-160v820h-220v-820h-160v820 h-100zM260 960h220v139q0 158 56 258q-35 13 -72 13q-100 0 -151 -65q-53 -67 -53 -206v-139z" />
</font>
</defs>
</svg>
